<svg xmlns="http://www.w3.org/2000/svg" version="1.1" viewBox="18.66 4.46 62.02 91.1"> <path d="m48.562 24.711c-3.3828 1.043-11.742 2.9961-18.473-0.52734-8.6523-4.5312-11.398-16.434-11.398-16.434-0.12109-0.53125 0.16406-1.0703 0.66797-1.2773 0 0 11.344-4.5273 20 0.003906 5.6992 2.9844 8.8359 9.1719 10.312 13.043 1.4766-3.8711 4.6133-10.059 10.312-13.043 8.6523-4.5312 20-0.003906 20-0.003906 0.50391 0.20312 0.78906 0.74609 0.66797 1.2773 0 0-2.7461 11.902-11.398 16.434-6.7305 3.5234-15.09 1.5703-18.473 0.52734v12.172 0.38281c0.86719-1.2969 2.0352-2.5547 3.5664-3.3555 4.3594-2.2852 10.078-0.027344 10.078-0.027344 0.50391 0.20313 0.78906 0.74609 0.66797 1.2773 0 0-1.4023 5.9844-5.7617 8.2695-2.9648 1.5508-6.5547 1.0039-8.5508 0.49609v4.9688h26.992c0.61328 0 1.1094 0.49609 1.1094 1.1094v34.023c0 6.3711-5.1641 11.535-11.535 11.535h-34.711c-6.3711 0-11.535-5.1641-11.535-11.535v-34.023c0-0.61328 0.49609-1.1094 1.1094-1.1094h26.344v-6.4844-4.0391c-1.9961 0.50781-5.5859 1.0547-8.5508-0.49609-4.3594-2.2852-5.7617-8.2695-5.7617-8.2695-0.12109-0.53125 0.16406-1.0703 0.66797-1.2773 0 0 5.7188-2.2578 10.078 0.027344 1.5312 0.80078 2.6992 2.0625 3.5664 3.3555v-6.9961zm-0.27344-2.4258c-0.85547-2.875-3.6523-10.535-9.9609-13.836-6.4414-3.3711-14.527-1.1484-17.219-0.24609 0.78906 2.7266 3.5703 10.641 10.012 14.012 5.0742 2.6562 11.172 1.8398 14.844 0.93359-4.6211-4.3281-9.8008-8.3438-15.574-10.238-0.58203-0.19141-0.89844-0.82031-0.70703-1.4023 0.19141-0.58203 0.82031-0.89844 1.4023-0.70703 6.4062 2.1016 12.145 6.6523 17.203 11.488zm3.5352 0.4375c3.2617 0.98828 10.52 2.5742 16.402-0.50391 6.4414-3.3711 9.2227-11.285 10.012-14.012-2.6914-0.90625-10.777-3.1289-17.219 0.24609-4.7773 2.5-7.543 7.5-8.9727 11.027 4.6016-4.1797 9.7344-7.9375 15.383-9.793 0.58203-0.19141 1.2109 0.125 1.4023 0.70703 0.19141 0.58203-0.125 1.2109-0.70703 1.4023-6.0781 1.9961-11.496 6.3359-16.297 10.926zm-2.1523 28.391h-26.344v32.91c0 5.1406 4.168 9.3125 9.3125 9.3125h34.711c5.1406 0 9.3125-4.168 9.3125-9.3125v-8.4648h-36.094c-2.6914 0-4.8789-2.1836-4.8789-4.8789v-3.5781c0-2.6914 2.1836-4.8789 4.8789-4.8789h36.094v-11.109zm-2.0977-16.766c-0.71484-1.4492-1.8633-3.1094-3.6133-4.0273-2.5742-1.3477-5.7305-0.70703-7.2734-0.25391 0.50391 1.5273 1.7773 4.4844 4.3516 5.832 1.9062 0.99609 4.125 0.90625 5.7773 0.60937-1.5938-1.0781-3.3359-2.0234-5.2461-2.5117-0.59375-0.15234-0.95312-0.75781-0.80078-1.3516 0.15234-0.59375 0.75781-0.95312 1.3516-0.80078 1.9648 0.50391 3.7852 1.4258 5.4492 2.5039zm5.0156 7.7305c1.6445 0.28906 3.832 0.36328 5.7109-0.62109 2.5742-1.3477 3.8477-4.3047 4.3516-5.832-1.543-0.45703-4.6992-1.0938-7.2734 0.25391-1.7734 0.92969-2.9258 2.6172-3.6406 4.0781 1.8828-1.3047 3.9727-2.457 6.2578-3.043 0.59375-0.15234 1.1992 0.20703 1.3516 0.80078s-0.20703 1.1992-0.80078 1.3516c-2.1992 0.5625-4.1797 1.7344-5.9609 3.0117zm24.07 31.258v-8.8906h-36.094c-1.4648 0-2.6562 1.1875-2.6562 2.6562v3.5781c0 1.4648 1.1875 2.6562 2.6562 2.6562z" fill="#3c403f" fill-rule="evenodd"></path></svg>

