<svg xmlns="http://www.w3.org/2000/svg" version="1.1" viewBox="8.89 4.45 82.22 91.11"> <path d="m15.555 63.637h-5.5547c-0.61328 0-1.1094-0.49609-1.1094-1.1094v-7.7773c0-0.61328 0.49609-1.1094 1.1094-1.1094h24.125c-4.1367-1.3516-8.4375-3.5195-11.895-6.9766-9.9141-9.9141-9.1992-26.746-9.1992-26.746 0.027344-0.57422 0.48438-1.0352 1.0625-1.0625 0 0 7.75-0.32812 15.832 2.5586 0.92969-7.207 3.5312-12.707 3.5312-12.707 0.24609-0.51953 0.85156-0.76562 1.3906-0.5625 0 0 3.8906 1.4492 8.457 4.5 3.1992-4.8672 6.5039-7.9023 6.5039-7.9023 0.42578-0.38672 1.0742-0.38672 1.5 0 0 0 3.3047 3.0352 6.5039 7.9023 4.5664-3.0508 8.457-4.5 8.457-4.5 0.53906-0.19922 1.1406 0.046875 1.3906 0.5625 0 0 2.5117 5.3125 3.4805 12.336 7.6836-2.4961 14.77-2.1953 14.77-2.1953 0.57422 0.027344 1.0352 0.48438 1.0625 1.0625 0 0 0.71484 16.832-9.1992 26.746-3.4688 3.4688-7.7891 5.6367-11.934 6.9883h24.164c0.61328 0 1.1094 0.49609 1.1094 1.1094v7.7773c0 0.61328-0.49609 1.1094-1.1094 1.1094h-4.4453v30.809c0 0.61328-0.49609 1.1094-1.1094 1.1094h-67.777c-0.61328 0-1.1094-0.49609-1.1094-1.1094v-30.809zm31.777-7.7773h-36.223v5.5547h77.777v-5.5547h-35.859-0.078125-2.3594-0.070313-1.5469s-0.60156 0.027344-1.6406 0zm-17.637-32.199c-6.0781-2.293-12.094-2.582-14.457-2.5977 0.023438 3.6758 0.71094 16.176 8.5625 24.027 7.0508 7.0508 17.852 8.3242 22.645 8.5273-0.13281-0.33594-0.27344-0.71484-0.42578-1.1367-4.9805-3.0078-11.457-8.1172-14.48-15.559-1.7852-4.3906-2.1445-9.0352-1.8359-13.262zm12.445-9.1641c-3.0039-2.0078-5.7148-3.2812-7.1016-3.8789-0.77734 1.8711-2.4102 6.3008-3.0156 11.617 1.9961 0.85547 3.9688 1.9258 5.8125 3.2656 0.76953-4.0938 2.4414-7.8477 4.3047-11.004zm13.875-0.59766c-2.1406-3.2578-4.3438-5.6562-5.4648-6.7891-1.1172 1.1328-3.3242 3.5312-5.4648 6.7891 1.8477 1.3672 3.7344 2.9844 5.4648 4.8594 1.7305-1.875 3.6172-3.4961 5.4648-4.8594zm13.012 7.8945c-0.64453-5.1211-2.207-9.3516-2.9609-11.172-1.3828 0.59375-4.0977 1.8711-7.1016 3.8789 1.7578 2.9805 3.3477 6.4883 4.168 10.32 1.8906-1.25 3.8945-2.2383 5.8984-3.0234zm-14.332 31.75c5.207-0.35547 14.965-1.9297 21.504-8.4648 7.8516-7.8516 8.5391-20.355 8.5625-24.027-2.2227 0.015625-7.6797 0.27344-13.379 2.2109 0.35938 4.332 0.035157 9.1328-1.8086 13.66-3.0273 7.4414-9.5039 12.551-14.48 15.559-0.14062 0.39062-0.27344 0.74609-0.39844 1.0625zm-36.922 10.098v29.695h65.555v-29.695zm19.715-35.609c-1.7656-1.4297-3.6914-2.5703-5.6562-3.4727-0.1875 3.7148 0.21094 7.7266 1.7578 11.531 2.1797 5.3516 6.2695 9.4062 10.172 12.27-3.1562-4.6172-6.3633-11.07-6.3633-18.199 0-0.71484 0.03125-1.4258 0.09375-2.125zm11.621-7.5938c-1.625-1.8086-3.418-3.3594-5.1758-4.6719-1.8867 3.2305-3.543 7.1094-4.1094 11.336 0.34375 0.30859 0.68359 0.625 1.0117 0.95703 1.125 1.125 2.1133 2.3398 2.9805 3.6094 0.30859-1.5625 0.75781-3.125 1.3789-4.6562 0.99219-2.4375 2.3555-4.625 3.9141-6.5742zm12.047 5.8203c-0.66016-3.8984-2.2227-7.4805-3.9805-10.492-1.7617 1.3125-3.5508 2.8672-5.1758 4.6719 1.5586 1.9453 2.9219 4.1328 3.9141 6.5742 0.46484 1.1445 0.83203 2.3047 1.1172 3.4688 0.64844-0.84766 1.3594-1.6641 2.1328-2.4375 0.64063-0.63672 1.3047-1.2305 1.9961-1.7852zm-3.8086 22.102c3.8984-2.8633 7.9922-6.918 10.172-12.27 1.6133-3.9727 1.9766-8.168 1.7305-12.02-1.957 0.81641-3.9023 1.8516-5.7109 3.1602 0.11719 0.96094 0.17578 1.9375 0.17578 2.9258 0 7.1289-3.2109 13.582-6.3633 18.199zm-17.73-18.367v0.16797c0 5.3711 1.9531 10.324 4.2656 14.305-0.5-2.8516-0.77734-6.0547-0.52734-9.3398-1.0039-1.8125-2.2344-3.5586-3.7344-5.1289zm10.938-7.8203c-1.3086 1.6992-2.4492 3.5898-3.2969 5.6797-0.90625 2.2305-1.4219 4.5352-1.6484 6.8086 3.4023 6.5352 4.2148 13.738 4.3906 17.508 0.19141-4.0781 1.125-12.195 5.293-19.129-0.28125-1.7422-0.74609-3.4883-1.4375-5.1914-0.84766-2.0898-1.9883-3.9805-3.2969-5.6797zm10.902 6.7539c-0.24609 0.22266-0.48828 0.45312-0.72266 0.69141-1.207 1.2109-2.2461 2.5273-3.1406 3.9102 0.49609 3.8398 0.21484 7.6289-0.36719 10.938 2.3125-3.9805 4.2656-8.9336 4.2656-14.305 0-0.41406-0.011719-0.82422-0.035157-1.2344zm-15.918 11.129c0.25391 3.6562 1.0469 6.9961 1.8242 9.5156 0.089844 0.11328 0.17578 0.22266 0.26172 0.33203-0.25781-2.6914-0.83203-6.2266-2.0898-9.8438zm10.109-2.9727c-2.4336 5.2969-3.1797 10.863-3.3945 14.285 0.46094-0.52734 0.96484-1.1289 1.4922-1.8008 0.98438-3.1875 1.9961-7.6836 1.9023-12.488z" fill="#3c403f" fill-rule="evenodd"></path></svg>