<svg xmlns="http://www.w3.org/2000/svg" version="1.1" viewBox="18.66 4.46 62.02 91.1">  <path d="m78.891 50v34.023c0 6.3711-5.1641 11.535-11.535 11.535h-34.711c-6.3711 0-11.535-5.1641-11.535-11.535v-34.023c0-0.61328 0.49609-1.1094 1.1094-1.1094h9.2383c-6.1914-19.359-8.1016-33.57 3.5586-44.156 0.33594-0.30469 0.82031-0.375 1.2266-0.17969 0.40625 0.19531 0.65625 0.61719 0.62891 1.0703-0.50391 8.3477 1.9492 16.25 5.375 23.762 1.6641-7.8125 3.3281-15.824 5-24.047 0.085937-0.43359 0.42188-0.76953 0.85156-0.86328 0.42969-0.09375 0.875 0.078126 1.1367 0.43359 5.3203 7.3438 8.5781 16.215 9.6758 27 2.5938-7.3789 4.0625-15.133 3.5195-24.059-0.027344-0.44922 0.22266-0.875 0.62891-1.0703s0.89453-0.125 1.2266 0.17969c8.3477 7.5781 11.879 15.906 11.062 27.051-0.32422 4.457-1.3555 9.3711-3.0703 14.883h5.4961c0.61328 0 1.1094 0.49609 1.1094 1.1094zm-45.902 1.1094h-9.6523v32.91c0 5.1406 4.168 9.3125 9.3125 9.3125h34.711c5.1406 0 9.3125-4.168 9.3125-9.3125v-8.4648h-36.094c-2.6914 0-4.8789-2.1836-4.8789-4.8789v-3.5781c0-2.6914 2.1836-4.8789 4.8789-4.8789h36.094v-11.109h-5.9023-8.5547-14.414-0.042969zm8.4961-18.148c-3.8008-7.7852-6.7812-15.992-6.8906-24.656-5.1172 5.6992-6.4688 12.465-5.6328 20.52 0.62109 5.9688 2.4336 12.625 4.8359 20.062h4.207c0.53125-2.3828 1.0625-4.7852 1.5898-7.2031-3.3633-5.2852-5.6406-12.004-7.3242-18.055-0.16406-0.58984 0.17969-1.2031 0.77344-1.3672 0.58984-0.16406 1.2031 0.17969 1.3672 0.77344 1.4219 5.1094 3.2695 10.723 5.8828 15.465 0.39844-1.8359 0.79688-3.6797 1.1953-5.5391zm15.559 4.0469c-0.44922-11.504-3.1836-20.918-8.1406-28.656-1.7227 8.4531-3.4414 16.68-5.1641 24.695-1.1523 5.3711-2.3047 10.648-3.457 15.836h6.7305c2.4141-6.7422 2.9648-15.031 2.9961-23.336 0.003907-0.61328 0.50391-1.1094 1.1172-1.1055s1.1094 0.50391 1.1055 1.1172c-0.03125 8.2656-0.59375 16.512-2.8672 23.328h7.4023c0.33594-4.1875 0.42969-8.1445 0.28516-11.879zm12.914 11.879c1.7812-5.5938 2.8555-10.559 3.1836-15.043 0.69531-9.4805-1.9961-16.777-8.3789-23.348 0.16016 9.8906-2.0664 18.414-5.4883 26.672 0.13281 3.6953 0.042968 7.5977-0.28516 11.723h2.5703c3.4727-6.5938 5.0859-13.656 5.1094-21.113 0.003906-0.61328 0.5-1.1094 1.1133-1.1094 0.61328 0.003906 1.1094 0.5 1.1094 1.1133-0.023437 7.4336-1.5547 14.488-4.8359 21.109h5.8984zm6.7148 24.445v-8.8906h-36.094c-1.4648 0-2.6562 1.1875-2.6562 2.6562v3.5781c0 1.4648 1.1875 2.6562 2.6562 2.6562z" fill="#3c403f" fill-rule="evenodd"></path></svg>